<svg xmlns="http://www.w3.org/2000/svg" width="900" height="320" viewBox="0 0 900 320"><defs><linearGradient id="langBg" x1="0" y1="0" x2="1" y2="1"><stop offset="0%" stop-color="#080f20"/><stop offset="100%" stop-color="#111c3a"/></linearGradient></defs><rect x="0" y="0" width="900" height="320" rx="18" fill="url(#langBg)"/><text x="42" y="56" fill="#8ec5ff" font-size="25" font-family="Segoe UI,Arial,sans-serif" font-weight="700">Top Languages</text><text x="42" y="84" fill="#93a0be" font-size="14" font-family="Segoe UI,Arial,sans-serif">By public repository size</text><circle cx="250" cy="180" r="87.0" fill="none" stroke="#1f355d" stroke-width="38.0"/><path d="M 144.000 180.000 A 106.000 106.000 0 1 1 250.806 285.997 L 250.517 247.998 A 68.000 68.000 0 1 0 182.000 180.000 Z" fill="#6ea6ff"/><rect x="470" y="94" width="16" height="16" rx="4" fill="#6ea6ff"/><text x="496" y="108" fill="#d6e4ff" font-size="20" font-family="Segoe UI,Arial,sans-serif">TypeScript</text><text x="852" y="108" fill="#7ce6ff" font-size="20" font-family="Segoe UI,Arial,sans-serif" text-anchor="end">74.9%</text><path d="M 250.806 285.997 A 106.000 106.000 0 0 1 144.067 183.766 L 182.043 182.416 A 68.000 68.000 0 0 0 250.517 247.998 Z" fill="#b593ff"/><rect x="470" y="128" width="16" height="16" rx="4" fill="#b593ff"/><text x="496" y="142" fill="#d6e4ff" font-size="20" font-family="Segoe UI,Arial,sans-serif">JavaScript</text><text x="852" y="142" fill="#7ce6ff" font-size="20" font-family="Segoe UI,Arial,sans-serif" text-anchor="end">24.6%</text><path d="M 144.067 183.766 A 106.000 106.000 0 0 1 144.015 178.217 L 182.010 178.856 A 68.000 68.000 0 0 0 182.043 182.416 Z" fill="#3bcacb"/><rect x="470" y="162" width="16" height="16" rx="4" fill="#3bcacb"/><text x="496" y="176" fill="#d6e4ff" font-size="20" font-family="Segoe UI,Arial,sans-serif">Python</text><text x="852" y="176" fill="#7ce6ff" font-size="20" font-family="Segoe UI,Arial,sans-serif" text-anchor="end">0.6%</text><path d="M 144.015 178.217 A 106.000 106.000 0 0 1 144.254 172.673 L 182.163 175.299 A 68.000 68.000 0 0 0 182.010 178.856 Z" fill="#ff9f68"/><rect x="470" y="196" width="16" height="16" rx="4" fill="#ff9f68"/><text x="496" y="210" fill="#d6e4ff" font-size="20" font-family="Segoe UI,Arial,sans-serif">Matlab</text><text x="852" y="210" fill="#7ce6ff" font-size="20" font-family="Segoe UI,Arial,sans-serif" text-anchor="end">0.0%</text><text x="250" y="170" fill="#d6e4ff" font-size="22" font-family="Segoe UI,Arial,sans-serif" font-weight="700" text-anchor="middle">Language Mix</text><text x="250" y="198" fill="#93a0be" font-size="16" font-family="Segoe UI,Arial,sans-serif" text-anchor="middle">4 languages</text></svg>