<svg xmlns="http://www.w3.org/2000/svg" width="900" height="320" viewBox="0 0 900 320"><defs><linearGradient id="heroBgNew" x1="0" y1="0" x2="1" y2="1"><stop offset="0%" stop-color="#0b1125"/><stop offset="100%" stop-color="#151d3a"/></linearGradient><linearGradient id="panelBgNew" x1="0" y1="0" x2="1" y2="1"><stop offset="0%" stop-color="#0f1a3c"/><stop offset="100%" stop-color="#101c3a"/></linearGradient><radialGradient id="decorGlowNew" cx="0.82" cy="0.18" r="0.42"><stop offset="0%" stop-color="#6ea6ff" stop-opacity="0.20"/><stop offset="100%" stop-color="#6ea6ff" stop-opacity="0"/></radialGradient></defs><rect x="0" y="0" width="900" height="320" rx="18" fill="url(#heroBgNew)"/><circle cx="760" cy="72" r="110" fill="url(#decorGlowNew)"/><text x="40" y="52" fill="#9dc4ff" font-size="30" font-family="Segoe UI,Arial,sans-serif" font-weight="700">Contribution Pulse</text><text x="40" y="78" fill="#8d9bbd" font-size="14" font-family="Segoe UI,Arial,sans-serif">Fresh look · Last 30 days activity trend</text><text x="860" y="52" fill="#8d9bbd" font-size="13" font-family="Segoe UI,Arial,sans-serif" text-anchor="end">Updated 2026-03-05</text><rect x="34" y="96" width="276" height="194" rx="16" fill="url(#panelBgNew)" stroke="#2b467e"/><text x="58" y="158" fill="#b593ff" font-size="78" font-family="Segoe UI,Arial,sans-serif" font-weight="700">17</text><text x="58" y="188" fill="#7eaefc" font-size="22" font-family="Segoe UI,Arial,sans-serif" font-weight="600">Current Streak</text><text x="58" y="216" fill="#45d6d3" font-size="18" font-family="Segoe UI,Arial,sans-serif">Feb 17 – Present</text><rect x="54" y="236" width="116" height="42" rx="10" fill="#13244a" stroke="#28467e"/><text x="66" y="252" fill="#9ab6e8" font-size="12" font-family="Segoe UI,Arial,sans-serif">THIS YEAR</text><text x="66" y="271" fill="#72d6ff" font-size="22" font-family="Segoe UI,Arial,sans-serif" font-weight="700">253</text><rect x="178" y="236" width="116" height="42" rx="10" fill="#13244a" stroke="#28467e"/><text x="190" y="252" fill="#9ab6e8" font-size="12" font-family="Segoe UI,Arial,sans-serif">LONGEST</text><text x="190" y="271" fill="#72d6ff" font-size="22" font-family="Segoe UI,Arial,sans-serif" font-weight="700">17</text><rect x="326" y="96" width="540" height="194" rx="16" fill="url(#panelBgNew)" stroke="#2b467e"/><text x="348" y="120" fill="#9dc4ff" font-size="20" font-family="Segoe UI,Arial,sans-serif" font-weight="600">30-Day Activity</text><text x="848" y="120" fill="#45d6d3" font-size="16" font-family="Segoe UI,Arial,sans-serif" text-anchor="end">Feb 17 – Mar 5</text><rect x="348" y="128" width="154" height="54" rx="10" fill="#122248" stroke="#2a487f"/><text x="360" y="147" fill="#9ab6e8" font-size="12" font-family="Segoe UI,Arial,sans-serif">ACTIVE DAYS</text><text x="360" y="171" fill="#72d6ff" font-size="24" font-family="Segoe UI,Arial,sans-serif" font-weight="700">17/30</text><rect x="516" y="128" width="154" height="54" rx="10" fill="#122248" stroke="#2a487f"/><text x="528" y="147" fill="#9ab6e8" font-size="12" font-family="Segoe UI,Arial,sans-serif">AVG / DAY</text><text x="528" y="171" fill="#72d6ff" font-size="24" font-family="Segoe UI,Arial,sans-serif" font-weight="700">8.4</text><rect x="684" y="128" width="164" height="54" rx="10" fill="#122248" stroke="#2a487f"/><text x="696" y="147" fill="#9ab6e8" font-size="12" font-family="Segoe UI,Arial,sans-serif">PEAK DAY</text><text x="696" y="171" fill="#72d6ff" font-size="24" font-family="Segoe UI,Arial,sans-serif" font-weight="700">45</text><line x1="350" y1="270" x2="846" y2="270" stroke="#2a467a" stroke-width="1.4"/><rect x="356" y="266.00" width="10" height="4.00" rx="3" fill="#253b66" opacity="0.95"/><rect x="372" y="266.00" width="10" height="4.00" rx="3" fill="#253b66" opacity="0.95"/><rect x="388" y="266.00" width="10" height="4.00" rx="3" fill="#253b66" opacity="0.95"/><rect x="404" y="266.00" width="10" height="4.00" rx="3" fill="#253b66" opacity="0.95"/><rect x="420" y="266.00" width="10" height="4.00" rx="3" fill="#253b66" opacity="0.95"/><rect x="436" y="266.00" width="10" height="4.00" rx="3" fill="#253b66" opacity="0.95"/><rect x="452" y="266.00" width="10" height="4.00" rx="3" fill="#253b66" opacity="0.95"/><rect x="468" y="266.00" width="10" height="4.00" rx="3" fill="#253b66" opacity="0.95"/><rect x="484" y="266.00" width="10" height="4.00" rx="3" fill="#253b66" opacity="0.95"/><rect x="500" y="266.00" width="10" height="4.00" rx="3" fill="#253b66" opacity="0.95"/><rect x="516" y="266.00" width="10" height="4.00" rx="3" fill="#253b66" opacity="0.95"/><rect x="532" y="266.00" width="10" height="4.00" rx="3" fill="#253b66" opacity="0.95"/><rect x="548" y="266.00" width="10" height="4.00" rx="3" fill="#253b66" opacity="0.95"/><rect x="564" y="264.00" width="10" height="6.00" rx="3" fill="#4f7dff" opacity="0.95"/><rect x="580" y="264.00" width="10" height="6.00" rx="3" fill="#4f7dff" opacity="0.95"/><rect x="596" y="211.07" width="10" height="58.93" rx="3" fill="#6ff3d6" opacity="0.95"/><rect x="612" y="192.00" width="10" height="78.00" rx="3" fill="#6ff3d6" opacity="0.95"/><rect x="628" y="240.53" width="10" height="29.47" rx="3" fill="#59c9ff" opacity="0.95"/><rect x="644" y="238.80" width="10" height="31.20" rx="3" fill="#59c9ff" opacity="0.95"/><rect x="660" y="221.47" width="10" height="48.53" rx="3" fill="#59c9ff" opacity="0.95"/><rect x="676" y="264.00" width="10" height="6.00" rx="3" fill="#4f7dff" opacity="0.95"/><rect x="692" y="247.47" width="10" height="22.53" rx="3" fill="#4f7dff" opacity="0.95"/><rect x="708" y="261.33" width="10" height="8.67" rx="3" fill="#4f7dff" opacity="0.95"/><rect x="724" y="237.07" width="10" height="32.93" rx="3" fill="#59c9ff" opacity="0.95"/><rect x="740" y="259.60" width="10" height="10.40" rx="3" fill="#4f7dff" opacity="0.95"/><rect x="756" y="224.93" width="10" height="45.07" rx="3" fill="#59c9ff" opacity="0.95"/><rect x="772" y="230.13" width="10" height="39.87" rx="3" fill="#59c9ff" opacity="0.95"/><rect x="788" y="261.33" width="10" height="8.67" rx="3" fill="#4f7dff" opacity="0.95"/><rect x="804" y="259.60" width="10" height="10.40" rx="3" fill="#4f7dff" opacity="0.95"/><rect x="820" y="264.00" width="10" height="6.00" rx="3" fill="#4f7dff" opacity="0.95"/><polyline points="361.00,264.00 377.00,264.00 393.00,264.00 409.00,264.00 425.00,264.00 441.00,264.00 457.00,264.00 473.00,264.00 489.00,264.00 505.00,264.00 521.00,264.00 537.00,264.00 553.00,264.00 569.00,262.00 585.00,262.00 601.00,209.07 617.00,190.00 633.00,238.53 649.00,236.80 665.00,219.47 681.00,262.00 697.00,245.47 713.00,259.33 729.00,235.07 745.00,257.60 761.00,222.93 777.00,228.13 793.00,259.33 809.00,257.60 825.00,262.00" fill="none" stroke="#b79dff" stroke-width="2.1" stroke-linecap="round" stroke-linejoin="round" opacity="0.85"/><text x="350" y="288" fill="#8d9bbd" font-size="12" font-family="Segoe UI,Arial,sans-serif">30d ago</text><text x="846" y="288" fill="#8d9bbd" font-size="12" font-family="Segoe UI,Arial,sans-serif" text-anchor="end">today</text></svg>