<svg xmlns="http://www.w3.org/2000/svg" width="900" height="420" viewBox="0 0 900 420"><rect x="0" y="0" width="900" height="420" rx="18" fill="#060b12"/><text x="54" y="60" fill="#ffffff" font-size="48" font-family="Segoe UI,Arial,sans-serif" font-weight="800">2026</text><text x="410" y="60" fill="#ff4f4f" font-size="56" font-family="Segoe UI,Arial,sans-serif" font-weight="800" text-anchor="middle">18%</text><text x="840" y="60" fill="#a7ff5c" font-size="48" font-family="Segoe UI,Arial,sans-serif" font-weight="800" text-anchor="end">64/365</text><text x="840" y="94" fill="#8b95b2" font-size="20" font-family="Segoe UI,Arial,sans-serif" text-anchor="end">Days left: 301</text><circle cx="62" cy="120" r="6" fill="#66f2ef"/><circle cx="87" cy="120" r="6" fill="#66f2ef"/><circle cx="112" cy="120" r="6" fill="#66f2ef"/><circle cx="137" cy="120" r="6" fill="#66f2ef"/><circle cx="162" cy="120" r="6" fill="#66f2ef"/><circle cx="187" cy="120" r="6" fill="#66f2ef"/><circle cx="212" cy="120" r="6" fill="#66f2ef"/><circle cx="237" cy="120" r="6" fill="#66f2ef"/><circle cx="262" cy="120" r="6" fill="#66f2ef"/><circle cx="287" cy="120" r="6" fill="#66f2ef"/><circle cx="312" cy="120" r="6" fill="#66f2ef"/><circle cx="337" cy="120" r="6" fill="#66f2ef"/><circle cx="362" cy="120" r="6" fill="#66f2ef"/><circle cx="387" cy="120" r="6" fill="#66f2ef"/><circle cx="412" cy="120" r="6" fill="#66f2ef"/><circle cx="437" cy="120" r="6" fill="#66f2ef"/><circle cx="462" cy="120" r="6" fill="#66f2ef"/><circle cx="487" cy="120" r="6" fill="#66f2ef"/><circle cx="512" cy="120" r="6" fill="#66f2ef"/><circle cx="537" cy="120" r="6" fill="#66f2ef"/><circle cx="562" cy="120" r="6" fill="#66f2ef"/><circle cx="587" cy="120" r="6" fill="#66f2ef"/><circle cx="612" cy="120" r="6" fill="#66f2ef"/><circle cx="637" cy="120" r="6" fill="#66f2ef"/><circle cx="662" cy="120" r="6" fill="#66f2ef"/><circle cx="687" cy="120" r="6" fill="#66f2ef"/><circle cx="712" cy="120" r="6" fill="#66f2ef"/><circle cx="737" cy="120" r="6" fill="#66f2ef"/><circle cx="762" cy="120" r="6" fill="#66f2ef"/><circle cx="787" cy="120" r="6" fill="#66f2ef"/><circle cx="812" cy="120" r="6" fill="#66f2ef"/><circle cx="62" cy="145" r="6" fill="#66f2ef"/><circle cx="87" cy="145" r="6" fill="#66f2ef"/><circle cx="112" cy="145" r="6" fill="#66f2ef"/><circle cx="137" cy="145" r="6" fill="#66f2ef"/><circle cx="162" cy="145" r="6" fill="#66f2ef"/><circle cx="187" cy="145" r="6" fill="#66f2ef"/><circle cx="212" cy="145" r="6" fill="#66f2ef"/><circle cx="237" cy="145" r="6" fill="#66f2ef"/><circle cx="262" cy="145" r="6" fill="#66f2ef"/><circle cx="287" cy="145" r="6" fill="#66f2ef"/><circle cx="312" cy="145" r="6" fill="#66f2ef"/><circle cx="337" cy="145" r="6" fill="#66f2ef"/><circle cx="362" cy="145" r="6" fill="#66f2ef"/><circle cx="387" cy="145" r="6" fill="#66f2ef"/><circle cx="412" cy="145" r="6" fill="#66f2ef"/><circle cx="437" cy="145" r="6" fill="#66f2ef"/><circle cx="462" cy="145" r="6" fill="#66f2ef"/><circle cx="487" cy="145" r="6" fill="#66f2ef"/><circle cx="512" cy="145" r="6" fill="#66f2ef"/><circle cx="537" cy="145" r="6" fill="#66f2ef"/><circle cx="562" cy="145" r="6" fill="#66f2ef"/><circle cx="587" cy="145" r="6" fill="#66f2ef"/><circle cx="612" cy="145" r="6" fill="#66f2ef"/><circle cx="637" cy="145" r="6" fill="#66f2ef"/><circle cx="662" cy="145" r="6" fill="#66f2ef"/><circle cx="687" cy="145" r="6" fill="#66f2ef"/><circle cx="712" cy="145" r="6" fill="#66f2ef"/><circle cx="737" cy="145" r="6" fill="#66f2ef"/><circle cx="762" cy="145" r="6" fill="#66f2ef"/><circle cx="787" cy="145" r="6" fill="#66f2ef"/><circle cx="812" cy="145" r="6" fill="#66f2ef"/><circle cx="62" cy="170" r="6" fill="#66f2ef"/><circle cx="87" cy="170" r="6.8" fill="#66f2ef"/><circle cx="112" cy="170" r="6" fill="#18464b"/><circle cx="137" cy="170" r="6" fill="#18464b"/><circle cx="162" cy="170" r="6" fill="#18464b"/><circle cx="187" cy="170" r="6" fill="#18464b"/><circle cx="212" cy="170" r="6" fill="#18464b"/><circle cx="237" cy="170" r="6" fill="#18464b"/><circle cx="262" cy="170" r="6" fill="#18464b"/><circle cx="287" cy="170" r="6" fill="#18464b"/><circle cx="312" cy="170" r="6" fill="#18464b"/><circle cx="337" cy="170" r="6" fill="#18464b"/><circle cx="362" cy="170" r="6" fill="#18464b"/><circle cx="387" cy="170" r="6" fill="#18464b"/><circle cx="412" cy="170" r="6" fill="#18464b"/><circle cx="437" cy="170" r="6" fill="#18464b"/><circle cx="462" cy="170" r="6" fill="#18464b"/><circle cx="487" cy="170" r="6" fill="#18464b"/><circle cx="512" cy="170" r="6" fill="#18464b"/><circle cx="537" cy="170" r="6" fill="#18464b"/><circle cx="562" cy="170" r="6" fill="#18464b"/><circle cx="587" cy="170" r="6" fill="#18464b"/><circle cx="612" cy="170" r="6" fill="#18464b"/><circle cx="637" cy="170" r="6" fill="#18464b"/><circle cx="662" cy="170" r="6" fill="#18464b"/><circle cx="687" cy="170" r="6" fill="#18464b"/><circle cx="712" cy="170" r="6" fill="#18464b"/><circle cx="737" cy="170" r="6" fill="#18464b"/><circle cx="762" cy="170" r="6" fill="#18464b"/><circle cx="787" cy="170" r="6" fill="#18464b"/><circle cx="812" cy="170" r="6" fill="#18464b"/><circle cx="62" cy="195" r="6" fill="#18464b"/><circle cx="87" cy="195" r="6" fill="#18464b"/><circle cx="112" cy="195" r="6" fill="#18464b"/><circle cx="137" cy="195" r="6" fill="#18464b"/><circle cx="162" cy="195" r="6" fill="#18464b"/><circle cx="187" cy="195" r="6" fill="#18464b"/><circle cx="212" cy="195" r="6" fill="#18464b"/><circle cx="237" cy="195" r="6" fill="#18464b"/><circle cx="262" cy="195" r="6" fill="#18464b"/><circle cx="287" cy="195" r="6" fill="#18464b"/><circle cx="312" cy="195" r="6" fill="#18464b"/><circle cx="337" cy="195" r="6" fill="#18464b"/><circle cx="362" cy="195" r="6" fill="#18464b"/><circle cx="387" cy="195" r="6" fill="#18464b"/><circle cx="412" cy="195" r="6" fill="#18464b"/><circle cx="437" cy="195" r="6" fill="#18464b"/><circle cx="462" cy="195" r="6" fill="#18464b"/><circle cx="487" cy="195" r="6" fill="#18464b"/><circle cx="512" cy="195" r="6" fill="#18464b"/><circle cx="537" cy="195" r="6" fill="#18464b"/><circle cx="562" cy="195" r="6" fill="#18464b"/><circle cx="587" cy="195" r="6" fill="#18464b"/><circle cx="612" cy="195" r="6" fill="#18464b"/><circle cx="637" cy="195" r="6" fill="#18464b"/><circle cx="662" cy="195" r="6" fill="#18464b"/><circle cx="687" cy="195" r="6" fill="#18464b"/><circle cx="712" cy="195" r="6" fill="#18464b"/><circle cx="737" cy="195" r="6" fill="#18464b"/><circle cx="762" cy="195" r="6" fill="#18464b"/><circle cx="787" cy="195" r="6" fill="#18464b"/><circle cx="812" cy="195" r="6" fill="#18464b"/><circle cx="62" cy="220" r="6" fill="#18464b"/><circle cx="87" cy="220" r="6" fill="#18464b"/><circle cx="112" cy="220" r="6" fill="#18464b"/><circle cx="137" cy="220" r="6" fill="#18464b"/><circle cx="162" cy="220" r="6" fill="#18464b"/><circle cx="187" cy="220" r="6" fill="#18464b"/><circle cx="212" cy="220" r="6" fill="#18464b"/><circle cx="237" cy="220" r="6" fill="#18464b"/><circle cx="262" cy="220" r="6" fill="#18464b"/><circle cx="287" cy="220" r="6" fill="#18464b"/><circle cx="312" cy="220" r="6" fill="#18464b"/><circle cx="337" cy="220" r="6" fill="#18464b"/><circle cx="362" cy="220" r="6" fill="#18464b"/><circle cx="387" cy="220" r="6" fill="#18464b"/><circle cx="412" cy="220" r="6" fill="#18464b"/><circle cx="437" cy="220" r="6" fill="#18464b"/><circle cx="462" cy="220" r="6" fill="#18464b"/><circle cx="487" cy="220" r="6" fill="#18464b"/><circle cx="512" cy="220" r="6" fill="#18464b"/><circle cx="537" cy="220" r="6" fill="#18464b"/><circle cx="562" cy="220" r="6" fill="#18464b"/><circle cx="587" cy="220" r="6" fill="#18464b"/><circle cx="612" cy="220" r="6" fill="#18464b"/><circle cx="637" cy="220" r="6" fill="#18464b"/><circle cx="662" cy="220" r="6" fill="#18464b"/><circle cx="687" cy="220" r="6" fill="#18464b"/><circle cx="712" cy="220" r="6" fill="#18464b"/><circle cx="737" cy="220" r="6" fill="#18464b"/><circle cx="762" cy="220" r="6" fill="#18464b"/><circle cx="787" cy="220" r="6" fill="#18464b"/><circle cx="812" cy="220" r="6" fill="#18464b"/><circle cx="62" cy="245" r="6" fill="#18464b"/><circle cx="87" cy="245" r="6" fill="#18464b"/><circle cx="112" cy="245" r="6" fill="#18464b"/><circle cx="137" cy="245" r="6" fill="#18464b"/><circle cx="162" cy="245" r="6" fill="#18464b"/><circle cx="187" cy="245" r="6" fill="#18464b"/><circle cx="212" cy="245" r="6" fill="#18464b"/><circle cx="237" cy="245" r="6" fill="#18464b"/><circle cx="262" cy="245" r="6" fill="#18464b"/><circle cx="287" cy="245" r="6" fill="#18464b"/><circle cx="312" cy="245" r="6" fill="#18464b"/><circle cx="337" cy="245" r="6" fill="#18464b"/><circle cx="362" cy="245" r="6" fill="#18464b"/><circle cx="387" cy="245" r="6" fill="#18464b"/><circle cx="412" cy="245" r="6" fill="#18464b"/><circle cx="437" cy="245" r="6" fill="#18464b"/><circle cx="462" cy="245" r="6" fill="#18464b"/><circle cx="487" cy="245" r="6" fill="#18464b"/><circle cx="512" cy="245" r="6" fill="#18464b"/><circle cx="537" cy="245" r="6" fill="#18464b"/><circle cx="562" cy="245" r="6" fill="#18464b"/><circle cx="587" cy="245" r="6" fill="#18464b"/><circle cx="612" cy="245" r="6" fill="#18464b"/><circle cx="637" cy="245" r="6" fill="#18464b"/><circle cx="662" cy="245" r="6" fill="#18464b"/><circle cx="687" cy="245" r="6" fill="#18464b"/><circle cx="712" cy="245" r="6" fill="#18464b"/><circle cx="737" cy="245" r="6" fill="#18464b"/><circle cx="762" cy="245" r="6" fill="#18464b"/><circle cx="787" cy="245" r="6" fill="#18464b"/><circle cx="812" cy="245" r="6" fill="#18464b"/><circle cx="62" cy="270" r="6" fill="#18464b"/><circle cx="87" cy="270" r="6" fill="#18464b"/><circle cx="112" cy="270" r="6" fill="#18464b"/><circle cx="137" cy="270" r="6" fill="#18464b"/><circle cx="162" cy="270" r="6" fill="#18464b"/><circle cx="187" cy="270" r="6" fill="#18464b"/><circle cx="212" cy="270" r="6" fill="#18464b"/><circle cx="237" cy="270" r="6" fill="#18464b"/><circle cx="262" cy="270" r="6" fill="#18464b"/><circle cx="287" cy="270" r="6" fill="#18464b"/><circle cx="312" cy="270" r="6" fill="#18464b"/><circle cx="337" cy="270" r="6" fill="#18464b"/><circle cx="362" cy="270" r="6" fill="#18464b"/><circle cx="387" cy="270" r="6" fill="#18464b"/><circle cx="412" cy="270" r="6" fill="#18464b"/><circle cx="437" cy="270" r="6" fill="#18464b"/><circle cx="462" cy="270" r="6" fill="#18464b"/><circle cx="487" cy="270" r="6" fill="#18464b"/><circle cx="512" cy="270" r="6" fill="#18464b"/><circle cx="537" cy="270" r="6" fill="#18464b"/><circle cx="562" cy="270" r="6" fill="#18464b"/><circle cx="587" cy="270" r="6" fill="#18464b"/><circle cx="612" cy="270" r="6" fill="#18464b"/><circle cx="637" cy="270" r="6" fill="#18464b"/><circle cx="662" cy="270" r="6" fill="#18464b"/><circle cx="687" cy="270" r="6" fill="#18464b"/><circle cx="712" cy="270" r="6" fill="#18464b"/><circle cx="737" cy="270" r="6" fill="#18464b"/><circle cx="762" cy="270" r="6" fill="#18464b"/><circle cx="787" cy="270" r="6" fill="#18464b"/><circle cx="812" cy="270" r="6" fill="#18464b"/><circle cx="62" cy="295" r="6" fill="#18464b"/><circle cx="87" cy="295" r="6" fill="#18464b"/><circle cx="112" cy="295" r="6" fill="#18464b"/><circle cx="137" cy="295" r="6" fill="#18464b"/><circle cx="162" cy="295" r="6" fill="#18464b"/><circle cx="187" cy="295" r="6" fill="#18464b"/><circle cx="212" cy="295" r="6" fill="#18464b"/><circle cx="237" cy="295" r="6" fill="#18464b"/><circle cx="262" cy="295" r="6" fill="#18464b"/><circle cx="287" cy="295" r="6" fill="#18464b"/><circle cx="312" cy="295" r="6" fill="#18464b"/><circle cx="337" cy="295" r="6" fill="#18464b"/><circle cx="362" cy="295" r="6" fill="#18464b"/><circle cx="387" cy="295" r="6" fill="#18464b"/><circle cx="412" cy="295" r="6" fill="#18464b"/><circle cx="437" cy="295" r="6" fill="#18464b"/><circle cx="462" cy="295" r="6" fill="#18464b"/><circle cx="487" cy="295" r="6" fill="#18464b"/><circle cx="512" cy="295" r="6" fill="#18464b"/><circle cx="537" cy="295" r="6" fill="#18464b"/><circle cx="562" cy="295" r="6" fill="#18464b"/><circle cx="587" cy="295" r="6" fill="#18464b"/><circle cx="612" cy="295" r="6" fill="#18464b"/><circle cx="637" cy="295" r="6" fill="#18464b"/><circle cx="662" cy="295" r="6" fill="#18464b"/><circle cx="687" cy="295" r="6" fill="#18464b"/><circle cx="712" cy="295" r="6" fill="#18464b"/><circle cx="737" cy="295" r="6" fill="#18464b"/><circle cx="762" cy="295" r="6" fill="#18464b"/><circle cx="787" cy="295" r="6" fill="#18464b"/><circle cx="812" cy="295" r="6" fill="#18464b"/><circle cx="62" cy="320" r="6" fill="#18464b"/><circle cx="87" cy="320" r="6" fill="#18464b"/><circle cx="112" cy="320" r="6" fill="#18464b"/><circle cx="137" cy="320" r="6" fill="#18464b"/><circle cx="162" cy="320" r="6" fill="#18464b"/><circle cx="187" cy="320" r="6" fill="#18464b"/><circle cx="212" cy="320" r="6" fill="#18464b"/><circle cx="237" cy="320" r="6" fill="#18464b"/><circle cx="262" cy="320" r="6" fill="#18464b"/><circle cx="287" cy="320" r="6" fill="#18464b"/><circle cx="312" cy="320" r="6" fill="#18464b"/><circle cx="337" cy="320" r="6" fill="#18464b"/><circle cx="362" cy="320" r="6" fill="#18464b"/><circle cx="387" cy="320" r="6" fill="#18464b"/><circle cx="412" cy="320" r="6" fill="#18464b"/><circle cx="437" cy="320" r="6" fill="#18464b"/><circle cx="462" cy="320" r="6" fill="#18464b"/><circle cx="487" cy="320" r="6" fill="#18464b"/><circle cx="512" cy="320" r="6" fill="#18464b"/><circle cx="537" cy="320" r="6" fill="#18464b"/><circle cx="562" cy="320" r="6" fill="#18464b"/><circle cx="587" cy="320" r="6" fill="#18464b"/><circle cx="612" cy="320" r="6" fill="#18464b"/><circle cx="637" cy="320" r="6" fill="#18464b"/><circle cx="662" cy="320" r="6" fill="#18464b"/><circle cx="687" cy="320" r="6" fill="#18464b"/><circle cx="712" cy="320" r="6" fill="#18464b"/><circle cx="737" cy="320" r="6" fill="#18464b"/><circle cx="762" cy="320" r="6" fill="#18464b"/><circle cx="787" cy="320" r="6" fill="#18464b"/><circle cx="812" cy="320" r="6" fill="#18464b"/><circle cx="62" cy="345" r="6" fill="#18464b"/><circle cx="87" cy="345" r="6" fill="#18464b"/><circle cx="112" cy="345" r="6" fill="#18464b"/><circle cx="137" cy="345" r="6" fill="#18464b"/><circle cx="162" cy="345" r="6" fill="#18464b"/><circle cx="187" cy="345" r="6" fill="#18464b"/><circle cx="212" cy="345" r="6" fill="#18464b"/><circle cx="237" cy="345" r="6" fill="#18464b"/><circle cx="262" cy="345" r="6" fill="#18464b"/><circle cx="287" cy="345" r="6" fill="#18464b"/><circle cx="312" cy="345" r="6" fill="#18464b"/><circle cx="337" cy="345" r="6" fill="#18464b"/><circle cx="362" cy="345" r="6" fill="#18464b"/><circle cx="387" cy="345" r="6" fill="#18464b"/><circle cx="412" cy="345" r="6" fill="#18464b"/><circle cx="437" cy="345" r="6" fill="#18464b"/><circle cx="462" cy="345" r="6" fill="#18464b"/><circle cx="487" cy="345" r="6" fill="#18464b"/><circle cx="512" cy="345" r="6" fill="#18464b"/><circle cx="537" cy="345" r="6" fill="#18464b"/><circle cx="562" cy="345" r="6" fill="#18464b"/><circle cx="587" cy="345" r="6" fill="#18464b"/><circle cx="612" cy="345" r="6" fill="#18464b"/><circle cx="637" cy="345" r="6" fill="#18464b"/><circle cx="662" cy="345" r="6" fill="#18464b"/><circle cx="687" cy="345" r="6" fill="#18464b"/><circle cx="712" cy="345" r="6" fill="#18464b"/><circle cx="737" cy="345" r="6" fill="#18464b"/><circle cx="762" cy="345" r="6" fill="#18464b"/><circle cx="787" cy="345" r="6" fill="#18464b"/><circle cx="812" cy="345" r="6" fill="#18464b"/><circle cx="62" cy="370" r="6" fill="#18464b"/><circle cx="87" cy="370" r="6" fill="#18464b"/><circle cx="112" cy="370" r="6" fill="#18464b"/><circle cx="137" cy="370" r="6" fill="#18464b"/><circle cx="162" cy="370" r="6" fill="#18464b"/><circle cx="187" cy="370" r="6" fill="#18464b"/><circle cx="212" cy="370" r="6" fill="#18464b"/><circle cx="237" cy="370" r="6" fill="#18464b"/><circle cx="262" cy="370" r="6" fill="#18464b"/><circle cx="287" cy="370" r="6" fill="#18464b"/><circle cx="312" cy="370" r="6" fill="#18464b"/><circle cx="337" cy="370" r="6" fill="#18464b"/><circle cx="362" cy="370" r="6" fill="#18464b"/><circle cx="387" cy="370" r="6" fill="#18464b"/><circle cx="412" cy="370" r="6" fill="#18464b"/><circle cx="437" cy="370" r="6" fill="#18464b"/><circle cx="462" cy="370" r="6" fill="#18464b"/><circle cx="487" cy="370" r="6" fill="#18464b"/><circle cx="512" cy="370" r="6" fill="#18464b"/><circle cx="537" cy="370" r="6" fill="#18464b"/><circle cx="562" cy="370" r="6" fill="#18464b"/><circle cx="587" cy="370" r="6" fill="#18464b"/><circle cx="612" cy="370" r="6" fill="#18464b"/><circle cx="637" cy="370" r="6" fill="#18464b"/><circle cx="662" cy="370" r="6" fill="#18464b"/><circle cx="687" cy="370" r="6" fill="#18464b"/><circle cx="712" cy="370" r="6" fill="#18464b"/><circle cx="737" cy="370" r="6" fill="#18464b"/><circle cx="762" cy="370" r="6" fill="#18464b"/><circle cx="787" cy="370" r="6" fill="#18464b"/><circle cx="812" cy="370" r="6" fill="#18464b"/><circle cx="62" cy="395" r="6" fill="#18464b"/><circle cx="87" cy="395" r="6" fill="#18464b"/><circle cx="112" cy="395" r="6" fill="#18464b"/><circle cx="137" cy="395" r="6" fill="#18464b"/><circle cx="162" cy="395" r="6" fill="#18464b"/><circle cx="187" cy="395" r="6" fill="#18464b"/><circle cx="212" cy="395" r="6" fill="#18464b"/><circle cx="237" cy="395" r="6" fill="#18464b"/><circle cx="262" cy="395" r="6" fill="#18464b"/><circle cx="287" cy="395" r="6" fill="#18464b"/><circle cx="312" cy="395" r="6" fill="#18464b"/><circle cx="337" cy="395" r="6" fill="#18464b"/><circle cx="362" cy="395" r="6" fill="#18464b"/><circle cx="387" cy="395" r="6" fill="#18464b"/><circle cx="412" cy="395" r="6" fill="#18464b"/><circle cx="437" cy="395" r="6" fill="#18464b"/><circle cx="462" cy="395" r="6" fill="#18464b"/><circle cx="487" cy="395" r="6" fill="#18464b"/><circle cx="512" cy="395" r="6" fill="#18464b"/><circle cx="537" cy="395" r="6" fill="#18464b"/><circle cx="562" cy="395" r="6" fill="#18464b"/><circle cx="587" cy="395" r="6" fill="#18464b"/><circle cx="612" cy="395" r="6" fill="#18464b"/><circle cx="637" cy="395" r="6" fill="#18464b"/></svg>